<?xml version="1.0" encoding="UTF-8" standalone="no"?>
<!DOCTYPE svg PUBLIC "-//W3C//DTD SVG 1.1//EN"
 "http://www.w3.org/Graphics/SVG/1.1/DTD/svg11.dtd">
<!-- Generated by graphviz version 12.2.1 (20241206.2353)
 -->
<!-- Pages: 1 -->
<svg width="252pt" height="261pt"
 viewBox="0.00 0.00 252.40 261.00" xmlns="http://www.w3.org/2000/svg" xmlns:xlink="http://www.w3.org/1999/xlink">
<g id="graph0" class="graph" transform="scale(1 1) rotate(0) translate(4 257)">
<polygon fill="white" stroke="none" points="-4,4 -4,-257 248.4,-257 248.4,4 -4,4"/>
<g id="clust1" class="cluster">
<title>cluster_I</title>
<polygon fill="none" stroke="white" points="8,-67 8,-188 67.2,-188 67.2,-67 8,-67"/>
</g>
<g id="clust2" class="cluster">
<title>cluster_H</title>
<polygon fill="none" stroke="white" points="87.2,-8 87.2,-245 157.2,-245 157.2,-8 87.2,-8"/>
</g>
<g id="clust3" class="cluster">
<title>cluster_O</title>
<polygon fill="none" stroke="white" points="177.2,-98 177.2,-158 236.4,-158 236.4,-98 177.2,-98"/>
</g>
<!-- I1 -->
<g id="node1" class="node">
<title>I1</title>
<ellipse fill="lightblue" stroke="lightblue" cx="37.6" cy="-97" rx="21.6" ry="21.6"/>
<text text-anchor="middle" x="37.6" y="-91.95" font-family="Times,serif" font-size="14.00">I1</text>
</g>
<!-- H1 -->
<g id="node3" class="node">
<title>H1</title>
<ellipse fill="lightgreen" stroke="lightgreen" cx="122.2" cy="-38" rx="21.6" ry="21.6"/>
<text text-anchor="middle" x="122.2" y="-32.95" font-family="Times,serif" font-size="14.00">H1</text>
</g>
<!-- I1&#45;&gt;H1 -->
<g id="edge1" class="edge">
<title>I1&#45;&gt;H1</title>
<path fill="none" stroke="black" d="M55.71,-84.78C67.01,-76.71 82.04,-65.97 94.84,-56.83"/>
<polygon fill="black" stroke="black" points="96.77,-59.75 102.88,-51.09 92.7,-54.05 96.77,-59.75"/>
</g>
<!-- H2 -->
<g id="node4" class="node">
<title>H2</title>
<ellipse fill="lightgreen" stroke="lightgreen" cx="122.2" cy="-99" rx="21.6" ry="21.6"/>
<text text-anchor="middle" x="122.2" y="-93.95" font-family="Times,serif" font-size="14.00">H2</text>
</g>
<!-- I1&#45;&gt;H2 -->
<g id="edge2" class="edge">
<title>I1&#45;&gt;H2</title>
<path fill="none" stroke="black" d="M59.44,-97.5C68.44,-97.72 79.18,-97.98 89.15,-98.22"/>
<polygon fill="black" stroke="black" points="88.77,-101.72 98.85,-98.46 88.94,-94.72 88.77,-101.72"/>
</g>
<!-- Hdots -->
<g id="node5" class="node">
<title>Hdots</title>
<text text-anchor="middle" x="122.2" y="-149.25" font-family="Times,serif" font-size="20.00">...</text>
</g>
<!-- I1&#45;&gt;Hdots -->
<g id="edge3" class="edge">
<title>I1&#45;&gt;Hdots</title>
<path fill="none" stroke="black" stroke-dasharray="5,2" d="M55.71,-109.43C64.85,-116.07 76.43,-124.48 87.3,-132.37"/>
<polygon fill="black" stroke="black" points="85.21,-135.19 95.36,-138.23 89.33,-129.52 85.21,-135.19"/>
</g>
<!-- Hn -->
<g id="node6" class="node">
<title>Hn</title>
<ellipse fill="lightgreen" stroke="lightgreen" cx="122.2" cy="-215" rx="21.6" ry="21.6"/>
<text text-anchor="middle" x="122.2" y="-209.95" font-family="Times,serif" font-size="14.00">H...n</text>
</g>
<!-- I1&#45;&gt;Hn -->
<g id="edge4" class="edge">
<title>I1&#45;&gt;Hn</title>
<path fill="none" stroke="black" stroke-dasharray="5,2" d="M54.52,-111.21C59.08,-115.89 63.74,-121.35 67.2,-127 81.22,-149.9 72.39,-161.61 87.2,-184 89.71,-187.79 92.78,-191.42 96.04,-194.79"/>
<polygon fill="black" stroke="black" points="93.52,-197.22 103.22,-201.49 98.29,-192.1 93.52,-197.22"/>
</g>
<!-- I2 -->
<g id="node2" class="node">
<title>I2</title>
<ellipse fill="lightblue" stroke="lightblue" cx="37.6" cy="-158" rx="21.6" ry="21.6"/>
<text text-anchor="middle" x="37.6" y="-152.95" font-family="Times,serif" font-size="14.00">I2</text>
</g>
<!-- I2&#45;&gt;H1 -->
<g id="edge5" class="edge">
<title>I2&#45;&gt;H1</title>
<path fill="none" stroke="black" d="M54.27,-144.13C58.93,-139.38 63.71,-133.8 67.2,-128 81.69,-103.91 71.68,-91.44 87.2,-68 89.55,-64.44 92.44,-61.05 95.52,-57.91"/>
<polygon fill="black" stroke="black" points="97.77,-60.59 102.79,-51.26 93.04,-55.42 97.77,-60.59"/>
</g>
<!-- I2&#45;&gt;H2 -->
<g id="edge6" class="edge">
<title>I2&#45;&gt;H2</title>
<path fill="none" stroke="black" d="M55.71,-145.78C67.01,-137.71 82.04,-126.97 94.84,-117.83"/>
<polygon fill="black" stroke="black" points="96.77,-120.75 102.88,-112.09 92.7,-115.05 96.77,-120.75"/>
</g>
<!-- I2&#45;&gt;Hdots -->
<g id="edge7" class="edge">
<title>I2&#45;&gt;Hdots</title>
<path fill="none" stroke="black" stroke-dasharray="5,2" d="M59.44,-157.75C66.93,-157.66 75.63,-157.55 84.08,-157.45"/>
<polygon fill="black" stroke="black" points="83.86,-160.95 93.82,-157.33 83.78,-153.95 83.86,-160.95"/>
</g>
<!-- I2&#45;&gt;Hn -->
<g id="edge8" class="edge">
<title>I2&#45;&gt;Hn</title>
<path fill="none" stroke="black" stroke-dasharray="5,2" d="M55.71,-169.81C66.94,-177.55 81.84,-187.84 94.59,-196.64"/>
<polygon fill="black" stroke="black" points="92.36,-199.35 102.58,-202.15 96.33,-193.59 92.36,-199.35"/>
</g>
<!-- O1 -->
<g id="node7" class="node">
<title>O1</title>
<ellipse fill="salmon" stroke="salmon" cx="206.8" cy="-128" rx="21.6" ry="21.6"/>
<text text-anchor="middle" x="206.8" y="-122.95" font-family="Times,serif" font-size="14.00">O1</text>
</g>
<!-- H1&#45;&gt;O1 -->
<g id="edge9" class="edge">
<title>H1&#45;&gt;O1</title>
<path fill="none" stroke="black" d="M139.62,-51.51C145.37,-56.5 151.75,-62.32 157.2,-68 167.32,-78.55 177.63,-91 186.14,-101.82"/>
<polygon fill="black" stroke="black" points="183.29,-103.85 192.18,-109.62 188.83,-99.57 183.29,-103.85"/>
</g>
<!-- H2&#45;&gt;O1 -->
<g id="edge10" class="edge">
<title>H2&#45;&gt;O1</title>
<path fill="none" stroke="black" d="M142.78,-105.87C152.48,-109.28 164.41,-113.47 175.28,-117.29"/>
<polygon fill="black" stroke="black" points="174.06,-120.56 184.65,-120.57 176.38,-113.96 174.06,-120.56"/>
</g>
<!-- Hdots&#45;&gt;O1 -->
<g id="edge11" class="edge">
<title>Hdots&#45;&gt;O1</title>
<path fill="none" stroke="black" stroke-dasharray="5,2" d="M148.88,-147.98C157.18,-145.07 166.46,-141.81 175.09,-138.78"/>
<polygon fill="black" stroke="black" points="176.2,-142.1 184.48,-135.49 173.88,-135.5 176.2,-142.1"/>
</g>
<!-- Hn&#45;&gt;O1 -->
<g id="edge12" class="edge">
<title>Hn&#45;&gt;O1</title>
<path fill="none" stroke="black" stroke-dasharray="5,2" d="M139.13,-201.17C144.96,-195.94 151.51,-189.83 157.2,-184 166.7,-174.27 176.64,-163.03 185.03,-153.18"/>
<polygon fill="black" stroke="black" points="187.5,-155.68 191.27,-145.78 182.15,-151.17 187.5,-155.68"/>
</g>
</g>
</svg>
