<?xml version="1.0" encoding="UTF-8" standalone="no"?>
<!DOCTYPE svg PUBLIC "-//W3C//DTD SVG 1.1//EN"
 "http://www.w3.org/Graphics/SVG/1.1/DTD/svg11.dtd">
<!-- Generated by graphviz version 12.2.1 (20241206.2353)
 -->
<!-- Pages: 1 -->
<svg width="516pt" height="310pt"
 viewBox="0.00 0.00 515.83 310.00" xmlns="http://www.w3.org/2000/svg" xmlns:xlink="http://www.w3.org/1999/xlink">
<g id="graph0" class="graph" transform="scale(1 1) rotate(0) translate(4 306)">
<polygon fill="white" stroke="none" points="-4,4 -4,-306 511.83,-306 511.83,4 -4,4"/>
<g id="clust1" class="cluster">
<title>cluster_I</title>
<polygon fill="none" stroke="white" points="8,-96 8,-205 61.19,-205 61.19,-96 8,-96"/>
</g>
<g id="clust2" class="cluster">
<title>cluster_H1</title>
<polygon fill="none" stroke="white" points="81.19,-8 81.19,-294 150.76,-294 150.76,-8 81.19,-8"/>
</g>
<g id="clust3" class="cluster">
<title>cluster_H2</title>
<polygon fill="none" stroke="white" points="170.76,-44 170.76,-258 240.33,-258 240.33,-44 170.76,-44"/>
</g>
<g id="clust4" class="cluster">
<title>cluster_H3</title>
<polygon fill="none" stroke="white" points="260.33,-44 260.33,-258 329.9,-258 329.9,-44 260.33,-44"/>
</g>
<g id="clust5" class="cluster">
<title>cluster_H4</title>
<polygon fill="none" stroke="white" points="349.9,-8 349.9,-294 419.47,-294 419.47,-8 349.9,-8"/>
</g>
<g id="clust6" class="cluster">
<title>cluster_O</title>
<polygon fill="none" stroke="white" points="439.47,-121 439.47,-181 499.83,-181 499.83,-121 439.47,-121"/>
</g>
<!-- I1 -->
<g id="node1" class="node">
<title>I1</title>
<ellipse fill="lightblue" stroke="lightblue" cx="34.6" cy="-123" rx="18.6" ry="18.6"/>
<text text-anchor="middle" x="34.6" y="-117.95" font-family="Times,serif" font-size="14.00">I1</text>
</g>
<!-- H11 -->
<g id="node3" class="node">
<title>H11</title>
<ellipse fill="lightgreen" stroke="lightgreen" cx="115.98" cy="-43" rx="26.78" ry="26.78"/>
<text text-anchor="middle" x="115.98" y="-37.95" font-family="Times,serif" font-size="14.00">H11</text>
</g>
<!-- I1&#45;&gt;H11 -->
<g id="edge1" class="edge">
<title>I1&#45;&gt;H11</title>
<path fill="none" stroke="black" d="M48.35,-110.15C59.09,-99.32 74.82,-83.47 88.3,-69.89"/>
<polygon fill="black" stroke="black" points="90.71,-72.43 95.27,-62.86 85.74,-67.5 90.71,-72.43"/>
</g>
<!-- H12 -->
<g id="node4" class="node">
<title>H12</title>
<ellipse fill="lightgreen" stroke="lightgreen" cx="115.98" cy="-115" rx="26.78" ry="26.78"/>
<text text-anchor="middle" x="115.98" y="-109.95" font-family="Times,serif" font-size="14.00">H12</text>
</g>
<!-- I1&#45;&gt;H12 -->
<g id="edge2" class="edge">
<title>I1&#45;&gt;H12</title>
<path fill="none" stroke="black" d="M53.21,-121.22C60.44,-120.5 69.09,-119.62 77.6,-118.77"/>
<polygon fill="black" stroke="black" points="77.86,-122.26 87.46,-117.77 77.16,-115.29 77.86,-122.26"/>
</g>
<!-- H13 -->
<g id="node5" class="node">
<title>H13</title>
<ellipse fill="lightgreen" stroke="lightgreen" cx="115.98" cy="-187" rx="26.78" ry="26.78"/>
<text text-anchor="middle" x="115.98" y="-181.95" font-family="Times,serif" font-size="14.00">H13</text>
</g>
<!-- I1&#45;&gt;H13 -->
<g id="edge3" class="edge">
<title>I1&#45;&gt;H13</title>
<path fill="none" stroke="black" d="M49.79,-134.44C59.84,-142.54 73.66,-153.69 86,-163.64"/>
<polygon fill="black" stroke="black" points="83.48,-166.1 93.46,-169.66 87.88,-160.66 83.48,-166.1"/>
</g>
<!-- H14 -->
<g id="node6" class="node">
<title>H14</title>
<ellipse fill="lightgreen" stroke="lightgreen" cx="115.98" cy="-259" rx="26.78" ry="26.78"/>
<text text-anchor="middle" x="115.98" y="-253.95" font-family="Times,serif" font-size="14.00">H14</text>
</g>
<!-- I1&#45;&gt;H14 -->
<g id="edge4" class="edge">
<title>I1&#45;&gt;H14</title>
<path fill="none" stroke="black" d="M49.26,-134.86C53.61,-139.24 58.08,-144.49 61.19,-150 77.7,-179.31 64.75,-193.65 81.19,-223 83.09,-226.39 85.38,-229.71 87.86,-232.88"/>
<polygon fill="black" stroke="black" points="85,-234.93 94.19,-240.2 90.29,-230.35 85,-234.93"/>
</g>
<!-- I2 -->
<g id="node2" class="node">
<title>I2</title>
<ellipse fill="lightblue" stroke="lightblue" cx="34.6" cy="-178" rx="18.6" ry="18.6"/>
<text text-anchor="middle" x="34.6" y="-172.95" font-family="Times,serif" font-size="14.00">I2</text>
</g>
<!-- I2&#45;&gt;H11 -->
<g id="edge5" class="edge">
<title>I2&#45;&gt;H11</title>
<path fill="none" stroke="black" d="M49.25,-166.14C53.59,-161.76 58.07,-156.51 61.19,-151 77.54,-122.09 64.91,-107.95 81.19,-79 83.1,-75.61 85.39,-72.29 87.87,-69.12"/>
<polygon fill="black" stroke="black" points="90.3,-71.66 94.21,-61.81 85.01,-67.08 90.3,-71.66"/>
</g>
<!-- I2&#45;&gt;H12 -->
<g id="edge6" class="edge">
<title>I2&#45;&gt;H12</title>
<path fill="none" stroke="black" d="M49.79,-166.74C59.67,-158.9 73.2,-148.15 85.38,-138.49"/>
<polygon fill="black" stroke="black" points="87.5,-141.28 93.16,-132.32 83.15,-135.79 87.5,-141.28"/>
</g>
<!-- I2&#45;&gt;H13 -->
<g id="edge7" class="edge">
<title>I2&#45;&gt;H13</title>
<path fill="none" stroke="black" d="M53.21,-180C60.44,-180.82 69.09,-181.8 77.6,-182.76"/>
<polygon fill="black" stroke="black" points="77.13,-186.23 87.46,-183.88 77.92,-179.28 77.13,-186.23"/>
</g>
<!-- I2&#45;&gt;H14 -->
<g id="edge8" class="edge">
<title>I2&#45;&gt;H14</title>
<path fill="none" stroke="black" d="M48.35,-191.01C59.27,-202.15 75.33,-218.55 88.95,-232.45"/>
<polygon fill="black" stroke="black" points="86.07,-234.51 95.57,-239.2 91.07,-229.61 86.07,-234.51"/>
</g>
<!-- H21 -->
<g id="node7" class="node">
<title>H21</title>
<ellipse fill="lightgreen" stroke="lightgreen" cx="205.55" cy="-151" rx="26.78" ry="26.78"/>
<text text-anchor="middle" x="205.55" y="-145.95" font-family="Times,serif" font-size="14.00">H21</text>
</g>
<!-- H11&#45;&gt;H21 -->
<g id="edge9" class="edge">
<title>H11&#45;&gt;H21</title>
<path fill="none" stroke="black" d="M135.78,-61.29C140.93,-66.75 146.31,-72.91 150.76,-79 161.55,-93.79 159.97,-100.21 170.76,-115 173.05,-118.14 175.59,-121.3 178.22,-124.37"/>
<polygon fill="black" stroke="black" points="175.43,-126.5 184.72,-131.58 180.63,-121.81 175.43,-126.5"/>
</g>
<!-- H22 -->
<g id="node8" class="node">
<title>H22</title>
<ellipse fill="lightgreen" stroke="lightgreen" cx="205.55" cy="-223" rx="26.78" ry="26.78"/>
<text text-anchor="middle" x="205.55" y="-217.95" font-family="Times,serif" font-size="14.00">H22</text>
</g>
<!-- H11&#45;&gt;H22 -->
<g id="edge10" class="edge">
<title>H11&#45;&gt;H22</title>
<path fill="none" stroke="black" d="M136.78,-60.1C142.07,-65.62 147.28,-72.12 150.76,-79 172.8,-122.56 148.72,-143.44 170.76,-187 172.56,-190.55 174.81,-193.99 177.3,-197.26"/>
<polygon fill="black" stroke="black" points="174.58,-199.46 183.76,-204.76 179.88,-194.89 174.58,-199.46"/>
</g>
<!-- H23 -->
<g id="node9" class="node">
<title>H23</title>
<ellipse fill="lightgreen" stroke="lightgreen" cx="205.55" cy="-79" rx="26.78" ry="26.78"/>
<text text-anchor="middle" x="205.55" y="-73.95" font-family="Times,serif" font-size="14.00">H23</text>
</g>
<!-- H11&#45;&gt;H23 -->
<g id="edge11" class="edge">
<title>H11&#45;&gt;H23</title>
<path fill="none" stroke="black" d="M140.9,-52.84C149.81,-56.5 160.1,-60.73 169.78,-64.71"/>
<polygon fill="black" stroke="black" points="168.36,-67.91 178.94,-68.47 171.02,-61.43 168.36,-67.91"/>
</g>
<!-- H12&#45;&gt;H21 -->
<g id="edge12" class="edge">
<title>H12&#45;&gt;H21</title>
<path fill="none" stroke="black" d="M140.9,-124.84C149.81,-128.5 160.1,-132.73 169.78,-136.71"/>
<polygon fill="black" stroke="black" points="168.36,-139.91 178.94,-140.47 171.02,-133.43 168.36,-139.91"/>
</g>
<!-- H12&#45;&gt;H22 -->
<g id="edge13" class="edge">
<title>H12&#45;&gt;H22</title>
<path fill="none" stroke="black" d="M135.78,-133.29C140.93,-138.75 146.31,-144.91 150.76,-151 161.55,-165.79 159.97,-172.21 170.76,-187 173.05,-190.14 175.59,-193.3 178.22,-196.37"/>
<polygon fill="black" stroke="black" points="175.43,-198.5 184.72,-203.58 180.63,-193.81 175.43,-198.5"/>
</g>
<!-- H12&#45;&gt;H23 -->
<g id="edge14" class="edge">
<title>H12&#45;&gt;H23</title>
<path fill="none" stroke="black" d="M140.9,-105.16C149.81,-101.5 160.1,-97.27 169.78,-93.29"/>
<polygon fill="black" stroke="black" points="171.02,-96.57 178.94,-89.53 168.36,-90.09 171.02,-96.57"/>
</g>
<!-- H13&#45;&gt;H21 -->
<g id="edge15" class="edge">
<title>H13&#45;&gt;H21</title>
<path fill="none" stroke="black" d="M140.9,-177.16C149.81,-173.5 160.1,-169.27 169.78,-165.29"/>
<polygon fill="black" stroke="black" points="171.02,-168.57 178.94,-161.53 168.36,-162.09 171.02,-168.57"/>
</g>
<!-- H13&#45;&gt;H22 -->
<g id="edge16" class="edge">
<title>H13&#45;&gt;H22</title>
<path fill="none" stroke="black" d="M140.9,-196.84C149.81,-200.5 160.1,-204.73 169.78,-208.71"/>
<polygon fill="black" stroke="black" points="168.36,-211.91 178.94,-212.47 171.02,-205.43 168.36,-211.91"/>
</g>
<!-- H13&#45;&gt;H23 -->
<g id="edge17" class="edge">
<title>H13&#45;&gt;H23</title>
<path fill="none" stroke="black" d="M135.78,-168.71C140.93,-163.25 146.31,-157.09 150.76,-151 161.55,-136.21 159.97,-129.79 170.76,-115 173.05,-111.86 175.59,-108.7 178.22,-105.63"/>
<polygon fill="black" stroke="black" points="180.63,-108.19 184.72,-98.42 175.43,-103.5 180.63,-108.19"/>
</g>
<!-- H14&#45;&gt;H21 -->
<g id="edge18" class="edge">
<title>H14&#45;&gt;H21</title>
<path fill="none" stroke="black" d="M135.78,-240.71C140.93,-235.25 146.31,-229.09 150.76,-223 161.55,-208.21 159.97,-201.79 170.76,-187 173.05,-183.86 175.59,-180.7 178.22,-177.63"/>
<polygon fill="black" stroke="black" points="180.63,-180.19 184.72,-170.42 175.43,-175.5 180.63,-180.19"/>
</g>
<!-- H14&#45;&gt;H22 -->
<g id="edge19" class="edge">
<title>H14&#45;&gt;H22</title>
<path fill="none" stroke="black" d="M140.9,-249.16C149.81,-245.5 160.1,-241.27 169.78,-237.29"/>
<polygon fill="black" stroke="black" points="171.02,-240.57 178.94,-233.53 168.36,-234.09 171.02,-240.57"/>
</g>
<!-- H14&#45;&gt;H23 -->
<g id="edge20" class="edge">
<title>H14&#45;&gt;H23</title>
<path fill="none" stroke="black" d="M136.78,-241.9C142.07,-236.38 147.28,-229.88 150.76,-223 172.8,-179.44 148.72,-158.56 170.76,-115 172.56,-111.45 174.81,-108.01 177.3,-104.74"/>
<polygon fill="black" stroke="black" points="179.88,-107.11 183.76,-97.24 174.58,-102.54 179.88,-107.11"/>
</g>
<!-- H31 -->
<g id="node10" class="node">
<title>H31</title>
<ellipse fill="lightgreen" stroke="lightgreen" cx="295.11" cy="-151" rx="26.78" ry="26.78"/>
<text text-anchor="middle" x="295.11" y="-145.95" font-family="Times,serif" font-size="14.00">H31</text>
</g>
<!-- H21&#45;&gt;H31 -->
<g id="edge21" class="edge">
<title>H21&#45;&gt;H31</title>
<path fill="none" stroke="black" d="M232.82,-151C240.27,-151 248.52,-151 256.5,-151"/>
<polygon fill="black" stroke="black" points="256.35,-154.5 266.35,-151 256.35,-147.5 256.35,-154.5"/>
</g>
<!-- H32 -->
<g id="node11" class="node">
<title>H32</title>
<ellipse fill="lightgreen" stroke="lightgreen" cx="295.11" cy="-223" rx="26.78" ry="26.78"/>
<text text-anchor="middle" x="295.11" y="-217.95" font-family="Times,serif" font-size="14.00">H32</text>
</g>
<!-- H21&#45;&gt;H32 -->
<g id="edge22" class="edge">
<title>H21&#45;&gt;H32</title>
<path fill="none" stroke="black" d="M226.86,-167.7C238.24,-177.06 252.63,-188.89 265.17,-199.21"/>
<polygon fill="black" stroke="black" points="262.8,-201.78 272.75,-205.43 267.24,-196.38 262.8,-201.78"/>
</g>
<!-- H33 -->
<g id="node12" class="node">
<title>H33</title>
<ellipse fill="lightgreen" stroke="lightgreen" cx="295.11" cy="-79" rx="26.78" ry="26.78"/>
<text text-anchor="middle" x="295.11" y="-73.95" font-family="Times,serif" font-size="14.00">H33</text>
</g>
<!-- H21&#45;&gt;H33 -->
<g id="edge23" class="edge">
<title>H21&#45;&gt;H33</title>
<path fill="none" stroke="black" d="M226.86,-134.3C238.24,-124.94 252.63,-113.11 265.17,-102.79"/>
<polygon fill="black" stroke="black" points="267.24,-105.62 272.75,-96.57 262.8,-100.22 267.24,-105.62"/>
</g>
<!-- H22&#45;&gt;H31 -->
<g id="edge24" class="edge">
<title>H22&#45;&gt;H31</title>
<path fill="none" stroke="black" d="M226.86,-206.3C238.24,-196.94 252.63,-185.11 265.17,-174.79"/>
<polygon fill="black" stroke="black" points="267.24,-177.62 272.75,-168.57 262.8,-172.22 267.24,-177.62"/>
</g>
<!-- H22&#45;&gt;H32 -->
<g id="edge25" class="edge">
<title>H22&#45;&gt;H32</title>
<path fill="none" stroke="black" d="M232.82,-223C240.27,-223 248.52,-223 256.5,-223"/>
<polygon fill="black" stroke="black" points="256.35,-226.5 266.35,-223 256.35,-219.5 256.35,-226.5"/>
</g>
<!-- H22&#45;&gt;H33 -->
<g id="edge26" class="edge">
<title>H22&#45;&gt;H33</title>
<path fill="none" stroke="black" d="M226.32,-205.33C231.49,-199.88 236.63,-193.57 240.33,-187 256.61,-158.05 244.05,-143.95 260.33,-115 262.24,-111.61 264.53,-108.29 267.01,-105.12"/>
<polygon fill="black" stroke="black" points="269.44,-107.66 273.35,-97.81 264.15,-103.08 269.44,-107.66"/>
</g>
<!-- H23&#45;&gt;H31 -->
<g id="edge27" class="edge">
<title>H23&#45;&gt;H31</title>
<path fill="none" stroke="black" d="M226.86,-95.7C238.24,-105.06 252.63,-116.89 265.17,-127.21"/>
<polygon fill="black" stroke="black" points="262.8,-129.78 272.75,-133.43 267.24,-124.38 262.8,-129.78"/>
</g>
<!-- H23&#45;&gt;H32 -->
<g id="edge28" class="edge">
<title>H23&#45;&gt;H32</title>
<path fill="none" stroke="black" d="M226.32,-96.67C231.49,-102.12 236.63,-108.43 240.33,-115 256.61,-143.95 244.05,-158.05 260.33,-187 262.24,-190.39 264.53,-193.71 267.01,-196.88"/>
<polygon fill="black" stroke="black" points="264.15,-198.92 273.35,-204.19 269.44,-194.34 264.15,-198.92"/>
</g>
<!-- H23&#45;&gt;H33 -->
<g id="edge29" class="edge">
<title>H23&#45;&gt;H33</title>
<path fill="none" stroke="black" d="M232.82,-79C240.27,-79 248.52,-79 256.5,-79"/>
<polygon fill="black" stroke="black" points="256.35,-82.5 266.35,-79 256.35,-75.5 256.35,-82.5"/>
</g>
<!-- H41 -->
<g id="node13" class="node">
<title>H41</title>
<ellipse fill="lightgreen" stroke="lightgreen" cx="384.68" cy="-43" rx="26.78" ry="26.78"/>
<text text-anchor="middle" x="384.68" y="-37.95" font-family="Times,serif" font-size="14.00">H41</text>
</g>
<!-- H31&#45;&gt;H41 -->
<g id="edge30" class="edge">
<title>H31&#45;&gt;H41</title>
<path fill="none" stroke="black" d="M314.92,-132.71C320.07,-127.25 325.45,-121.09 329.9,-115 340.69,-100.21 339.11,-93.79 349.9,-79 352.19,-75.86 354.73,-72.7 357.36,-69.63"/>
<polygon fill="black" stroke="black" points="359.77,-72.19 363.86,-62.42 354.57,-67.5 359.77,-72.19"/>
</g>
<!-- H42 -->
<g id="node14" class="node">
<title>H42</title>
<ellipse fill="lightgreen" stroke="lightgreen" cx="384.68" cy="-115" rx="26.78" ry="26.78"/>
<text text-anchor="middle" x="384.68" y="-109.95" font-family="Times,serif" font-size="14.00">H42</text>
</g>
<!-- H31&#45;&gt;H42 -->
<g id="edge31" class="edge">
<title>H31&#45;&gt;H42</title>
<path fill="none" stroke="black" d="M320.04,-141.16C328.95,-137.5 339.24,-133.27 348.92,-129.29"/>
<polygon fill="black" stroke="black" points="350.16,-132.57 358.08,-125.53 347.5,-126.09 350.16,-132.57"/>
</g>
<!-- H43 -->
<g id="node15" class="node">
<title>H43</title>
<ellipse fill="lightgreen" stroke="lightgreen" cx="384.68" cy="-187" rx="26.78" ry="26.78"/>
<text text-anchor="middle" x="384.68" y="-181.95" font-family="Times,serif" font-size="14.00">H43</text>
</g>
<!-- H31&#45;&gt;H43 -->
<g id="edge32" class="edge">
<title>H31&#45;&gt;H43</title>
<path fill="none" stroke="black" d="M320.04,-160.84C328.95,-164.5 339.24,-168.73 348.92,-172.71"/>
<polygon fill="black" stroke="black" points="347.5,-175.91 358.08,-176.47 350.16,-169.43 347.5,-175.91"/>
</g>
<!-- H44 -->
<g id="node16" class="node">
<title>H44</title>
<ellipse fill="lightgreen" stroke="lightgreen" cx="384.68" cy="-259" rx="26.78" ry="26.78"/>
<text text-anchor="middle" x="384.68" y="-253.95" font-family="Times,serif" font-size="14.00">H44</text>
</g>
<!-- H31&#45;&gt;H44 -->
<g id="edge33" class="edge">
<title>H31&#45;&gt;H44</title>
<path fill="none" stroke="black" d="M314.92,-169.29C320.07,-174.75 325.45,-180.91 329.9,-187 340.69,-201.79 339.11,-208.21 349.9,-223 352.19,-226.14 354.73,-229.3 357.36,-232.37"/>
<polygon fill="black" stroke="black" points="354.57,-234.5 363.86,-239.58 359.77,-229.81 354.57,-234.5"/>
</g>
<!-- H32&#45;&gt;H41 -->
<g id="edge34" class="edge">
<title>H32&#45;&gt;H41</title>
<path fill="none" stroke="black" d="M315.92,-205.9C321.21,-200.38 326.42,-193.88 329.9,-187 351.94,-143.44 327.86,-122.56 349.9,-79 351.69,-75.45 353.95,-72.01 356.44,-68.74"/>
<polygon fill="black" stroke="black" points="359.02,-71.11 362.9,-61.24 353.72,-66.54 359.02,-71.11"/>
</g>
<!-- H32&#45;&gt;H42 -->
<g id="edge35" class="edge">
<title>H32&#45;&gt;H42</title>
<path fill="none" stroke="black" d="M314.92,-204.71C320.07,-199.25 325.45,-193.09 329.9,-187 340.69,-172.21 339.11,-165.79 349.9,-151 352.19,-147.86 354.73,-144.7 357.36,-141.63"/>
<polygon fill="black" stroke="black" points="359.77,-144.19 363.86,-134.42 354.57,-139.5 359.77,-144.19"/>
</g>
<!-- H32&#45;&gt;H43 -->
<g id="edge36" class="edge">
<title>H32&#45;&gt;H43</title>
<path fill="none" stroke="black" d="M320.04,-213.16C328.95,-209.5 339.24,-205.27 348.92,-201.29"/>
<polygon fill="black" stroke="black" points="350.16,-204.57 358.08,-197.53 347.5,-198.09 350.16,-204.57"/>
</g>
<!-- H32&#45;&gt;H44 -->
<g id="edge37" class="edge">
<title>H32&#45;&gt;H44</title>
<path fill="none" stroke="black" d="M320.04,-232.84C328.95,-236.5 339.24,-240.73 348.92,-244.71"/>
<polygon fill="black" stroke="black" points="347.5,-247.91 358.08,-248.47 350.16,-241.43 347.5,-247.91"/>
</g>
<!-- H33&#45;&gt;H41 -->
<g id="edge38" class="edge">
<title>H33&#45;&gt;H41</title>
<path fill="none" stroke="black" d="M320.04,-69.16C328.95,-65.5 339.24,-61.27 348.92,-57.29"/>
<polygon fill="black" stroke="black" points="350.16,-60.57 358.08,-53.53 347.5,-54.09 350.16,-60.57"/>
</g>
<!-- H33&#45;&gt;H42 -->
<g id="edge39" class="edge">
<title>H33&#45;&gt;H42</title>
<path fill="none" stroke="black" d="M320.04,-88.84C328.95,-92.5 339.24,-96.73 348.92,-100.71"/>
<polygon fill="black" stroke="black" points="347.5,-103.91 358.08,-104.47 350.16,-97.43 347.5,-103.91"/>
</g>
<!-- H33&#45;&gt;H43 -->
<g id="edge40" class="edge">
<title>H33&#45;&gt;H43</title>
<path fill="none" stroke="black" d="M314.92,-97.29C320.07,-102.75 325.45,-108.91 329.9,-115 340.69,-129.79 339.11,-136.21 349.9,-151 352.19,-154.14 354.73,-157.3 357.36,-160.37"/>
<polygon fill="black" stroke="black" points="354.57,-162.5 363.86,-167.58 359.77,-157.81 354.57,-162.5"/>
</g>
<!-- H33&#45;&gt;H44 -->
<g id="edge41" class="edge">
<title>H33&#45;&gt;H44</title>
<path fill="none" stroke="black" d="M315.92,-96.1C321.21,-101.62 326.42,-108.12 329.9,-115 351.94,-158.56 327.86,-179.44 349.9,-223 351.69,-226.55 353.95,-229.99 356.44,-233.26"/>
<polygon fill="black" stroke="black" points="353.72,-235.46 362.9,-240.76 359.02,-230.89 353.72,-235.46"/>
</g>
<!-- O1 -->
<g id="node17" class="node">
<title>O1</title>
<ellipse fill="salmon" stroke="salmon" cx="469.65" cy="-151" rx="22.18" ry="22.18"/>
<text text-anchor="middle" x="469.65" y="-145.95" font-family="Times,serif" font-size="14.00">O1</text>
</g>
<!-- H41&#45;&gt;O1 -->
<g id="edge42" class="edge">
<title>H41&#45;&gt;O1</title>
<path fill="none" stroke="black" d="M404.14,-61.56C409.28,-67.03 414.75,-73.12 419.47,-79 430.68,-92.96 442.03,-109.39 451,-123.03"/>
<polygon fill="black" stroke="black" points="447.87,-124.64 456.25,-131.12 453.74,-120.83 447.87,-124.64"/>
</g>
<!-- H42&#45;&gt;O1 -->
<g id="edge43" class="edge">
<title>H42&#45;&gt;O1</title>
<path fill="none" stroke="black" d="M409.68,-125.41C418.72,-129.34 429.12,-133.85 438.64,-137.98"/>
<polygon fill="black" stroke="black" points="436.94,-141.06 447.51,-141.83 439.73,-134.64 436.94,-141.06"/>
</g>
<!-- H43&#45;&gt;O1 -->
<g id="edge44" class="edge">
<title>H43&#45;&gt;O1</title>
<path fill="none" stroke="black" d="M409.68,-176.59C418.72,-172.66 429.12,-168.15 438.64,-164.02"/>
<polygon fill="black" stroke="black" points="439.73,-167.36 447.51,-160.17 436.94,-160.94 439.73,-167.36"/>
</g>
<!-- H44&#45;&gt;O1 -->
<g id="edge45" class="edge">
<title>H44&#45;&gt;O1</title>
<path fill="none" stroke="black" d="M404.14,-240.44C409.28,-234.97 414.75,-228.88 419.47,-223 430.68,-209.04 442.03,-192.61 451,-178.97"/>
<polygon fill="black" stroke="black" points="453.74,-181.17 456.25,-170.88 447.87,-177.36 453.74,-181.17"/>
</g>
</g>
</svg>
