<?xml version="1.0" encoding="UTF-8" standalone="no"?>
<!DOCTYPE svg PUBLIC "-//W3C//DTD SVG 1.1//EN"
 "http://www.w3.org/Graphics/SVG/1.1/DTD/svg11.dtd">
<!-- Generated by graphviz version 12.2.1 (20241206.2353)
 -->
<!-- Pages: 1 -->
<svg width="238pt" height="208pt"
 viewBox="0.00 0.00 237.90 208.00" xmlns="http://www.w3.org/2000/svg" xmlns:xlink="http://www.w3.org/1999/xlink">
<g id="graph0" class="graph" transform="scale(1 1) rotate(0) translate(4 204)">
<polygon fill="white" stroke="none" points="-4,4 -4,-204 233.9,-204 233.9,4 -4,4"/>
<g id="clust1" class="cluster">
<title>cluster_I</title>
<polygon fill="none" stroke="white" points="8,-45 8,-154 61.19,-154 61.19,-45 8,-45"/>
</g>
<g id="clust2" class="cluster">
<title>cluster_H</title>
<polygon fill="none" stroke="white" points="81.19,-8 81.19,-192 141.55,-192 141.55,-8 81.19,-8"/>
</g>
<g id="clust3" class="cluster">
<title>cluster_O</title>
<polygon fill="none" stroke="white" points="161.55,-70 161.55,-130 221.9,-130 221.9,-70 161.55,-70"/>
</g>
<!-- I1 -->
<g id="node1" class="node">
<title>I1</title>
<ellipse fill="lightblue" stroke="lightblue" cx="34.6" cy="-72" rx="18.6" ry="18.6"/>
<text text-anchor="middle" x="34.6" y="-66.95" font-family="Times,serif" font-size="14.00">I1</text>
</g>
<!-- H1 -->
<g id="node3" class="node">
<title>H1</title>
<ellipse fill="lightgreen" stroke="lightgreen" cx="111.37" cy="-100" rx="22.18" ry="22.18"/>
<text text-anchor="middle" x="111.37" y="-94.95" font-family="Times,serif" font-size="14.00">H1</text>
</g>
<!-- I1&#45;&gt;H1 -->
<g id="edge1" class="edge">
<title>I1&#45;&gt;H1</title>
<path fill="none" stroke="black" d="M52.56,-78.35C60.47,-81.31 70.13,-84.93 79.27,-88.35"/>
<polygon fill="black" stroke="black" points="78,-91.62 88.6,-91.85 80.46,-85.06 78,-91.62"/>
</g>
<!-- H2 -->
<g id="node4" class="node">
<title>H2</title>
<ellipse fill="lightgreen" stroke="lightgreen" cx="111.37" cy="-162" rx="22.18" ry="22.18"/>
<text text-anchor="middle" x="111.37" y="-156.95" font-family="Times,serif" font-size="14.00">H2</text>
</g>
<!-- I1&#45;&gt;H2 -->
<g id="edge2" class="edge">
<title>I1&#45;&gt;H2</title>
<path fill="none" stroke="black" d="M48.65,-84.71C52.85,-89.07 57.4,-94.1 61.19,-99 71.46,-112.26 70.95,-117.72 81.19,-131 83.07,-133.44 85.12,-135.91 87.22,-138.33"/>
<polygon fill="black" stroke="black" points="84.56,-140.61 93.88,-145.64 89.73,-135.89 84.56,-140.61"/>
</g>
<!-- H3 -->
<g id="node5" class="node">
<title>H3</title>
<ellipse fill="lightgreen" stroke="lightgreen" cx="111.37" cy="-38" rx="22.18" ry="22.18"/>
<text text-anchor="middle" x="111.37" y="-32.95" font-family="Times,serif" font-size="14.00">H3</text>
</g>
<!-- I1&#45;&gt;H3 -->
<g id="edge3" class="edge">
<title>I1&#45;&gt;H3</title>
<path fill="none" stroke="black" d="M51.82,-64.62C60.21,-60.81 70.72,-56.03 80.51,-51.58"/>
<polygon fill="black" stroke="black" points="81.69,-54.89 89.34,-47.56 78.79,-48.51 81.69,-54.89"/>
</g>
<!-- I2 -->
<g id="node2" class="node">
<title>I2</title>
<ellipse fill="lightblue" stroke="lightblue" cx="34.6" cy="-127" rx="18.6" ry="18.6"/>
<text text-anchor="middle" x="34.6" y="-121.95" font-family="Times,serif" font-size="14.00">I2</text>
</g>
<!-- I2&#45;&gt;H1 -->
<g id="edge4" class="edge">
<title>I2&#45;&gt;H1</title>
<path fill="none" stroke="black" d="M52.56,-120.87C60.47,-118.02 70.13,-114.53 79.27,-111.23"/>
<polygon fill="black" stroke="black" points="80.37,-114.55 88.59,-107.86 78,-107.97 80.37,-114.55"/>
</g>
<!-- I2&#45;&gt;H2 -->
<g id="edge5" class="edge">
<title>I2&#45;&gt;H2</title>
<path fill="none" stroke="black" d="M51.82,-134.59C60.21,-138.52 70.72,-143.44 80.51,-148.03"/>
<polygon fill="black" stroke="black" points="78.81,-151.09 89.35,-152.16 81.78,-144.75 78.81,-151.09"/>
</g>
<!-- I2&#45;&gt;H3 -->
<g id="edge6" class="edge">
<title>I2&#45;&gt;H3</title>
<path fill="none" stroke="black" d="M48.6,-114.26C52.8,-109.89 57.36,-104.88 61.19,-100 71.32,-87.11 71.09,-81.91 81.19,-69 83.16,-66.49 85.29,-63.95 87.47,-61.45"/>
<polygon fill="black" stroke="black" points="89.76,-64.13 93.93,-54.39 84.6,-59.41 89.76,-64.13"/>
</g>
<!-- O1 -->
<g id="node6" class="node">
<title>O1</title>
<ellipse fill="salmon" stroke="salmon" cx="191.73" cy="-100" rx="22.18" ry="22.18"/>
<text text-anchor="middle" x="191.73" y="-94.95" font-family="Times,serif" font-size="14.00">O1</text>
</g>
<!-- H1&#45;&gt;O1 -->
<g id="edge7" class="edge">
<title>H1&#45;&gt;O1</title>
<path fill="none" stroke="black" d="M133.78,-100C141.15,-100 149.58,-100 157.66,-100"/>
<polygon fill="black" stroke="black" points="157.56,-103.5 167.56,-100 157.56,-96.5 157.56,-103.5"/>
</g>
<!-- H2&#45;&gt;O1 -->
<g id="edge8" class="edge">
<title>H2&#45;&gt;O1</title>
<path fill="none" stroke="black" d="M129.37,-148.55C139.74,-140.34 153.2,-129.69 164.88,-120.45"/>
<polygon fill="black" stroke="black" points="166.9,-123.32 172.57,-114.37 162.56,-117.83 166.9,-123.32"/>
</g>
<!-- H3&#45;&gt;O1 -->
<g id="edge9" class="edge">
<title>H3&#45;&gt;O1</title>
<path fill="none" stroke="black" d="M129.37,-51.45C139.74,-59.66 153.2,-70.31 164.88,-79.55"/>
<polygon fill="black" stroke="black" points="162.56,-82.17 172.57,-85.63 166.9,-76.68 162.56,-82.17"/>
</g>
</g>
</svg>
